# xmcd
#
# Track frame offsets:
#	150
#	9645
#	18773
#	27863
#	41345
#	49688
#	57673
#	68428
#	79170
#	88480
#	99140
#	118120
#	126043
#	134805
#	155980
#	167150
#	176103
#	185910
#	197388
#	207145
#	217413
#	228080
#
# Disc length: 3157 seconds
#
# Revision: 0
# Processed by: cddbd v1.5.2PL0 Copyright (c) Steve Scherf et al.
# Submitted via: EZCDAudioConverter 2.1.7.1
#
DISCID=3b0c5316
DTITLE=V/A - Lost Treasures!
DYEAR=1995
DGENRE=
TTITLE0=Nite Hawks - Chicken Grabber
TTITLE1=James Boys - Ah Ha Crazy (Part 1)
TTITLE2=Moongooners - Moongoon Twist
TTITLE3=American Four - Soul Food
TTITLE4=Preston Epps - Mister Bongos
TTITLE5=Yo Yo Hashi - Yo Yo's Pad
TTITLE6=The Bedwells - Karate
TTITLE7=Rollercoasters - Spanish Twist
TTITLE8=The Rockyfellers - Don't Sit Down
TTITLE9=Eden Ahbez - Tobago
TTITLE10=Gary "Spider" Webb - Drum City (Part 1 and 2)
TTITLE11=Bob Ridgley - She Was A Mau-Mau
TTITLE12=Preston Epps - B'wana Bongos
TTITLE13=Shalimar and His Friends - Voodoo Mash (Part 1 and 2)
TTITLE14=Scramblers - Beatle Walk
TTITLE15=Bob Ridgley - The Way Out Mummy
TTITLE16=The Mincys (Wayne, Dwain, and John) - The F.B.I.
TTITLE17=Chuckie Chandler and The Chandeliers - Rockin' Moondog
TTITLE18=Scramblers - The Beatle Blues
TTITLE19=Ronnie and The Uncalled Four - Hot Toddy
TTITLE20=Ronnie and The Uncalled Four - Just (Part 2)
TTITLE21=Shifters - Surfin' Anniversary
EXTD=
EXTT0=
EXTT1=
EXTT2=
EXTT3=
EXTT4=
EXTT5=
EXTT6=
EXTT7=
EXTT8=
EXTT9=
EXTT10=
EXTT11=
EXTT12=
EXTT13=
EXTT14=
EXTT15=
EXTT16=
EXTT17=
EXTT18=
EXTT19=
EXTT20=
EXTT21=
PLAYORDER=
